HIERARCHY
ROOT Pelvis
{
	OFFSET 0.000000 0.000000 0.000000
	CHANNELS 6 Xposition Yposition Zposition Xrotation Yrotation Zrotation
	JOINT LeftUpLeg_virtual
	{
		OFFSET 0.000000 0.000000 0.000000
		CHANNELS 3 Xrotation Yrotation Zrotation
		JOINT LeftUpLeg
		{
			OFFSET 18.735201 -5.666702 -4.541200
			CHANNELS 3 Xrotation Yrotation Zrotation
			JOINT LeftLeg
			{
				OFFSET -0.021200 -31.938179 0.493100
				CHANNELS 3 Xrotation Yrotation Zrotation
				JOINT LeftFoot
				{
					OFFSET 0.021200 -31.938179 -4.336299
					CHANNELS 3 Xrotation Yrotation Zrotation
					JOINT LeftToeBase
					{
						OFFSET 0.943001 -26.722000 15.023500
						CHANNELS 3 Xrotation Yrotation Zrotation
						End Site
						{
							OFFSET 0 0 0
						}
					}
				}
			}
		}
	}
	JOINT RightUpLeg_virtual
	{
		OFFSET 0.000000 0.000000 0.000000
		CHANNELS 3 Xrotation Yrotation Zrotation
		JOINT RightUpLeg
		{
			OFFSET -18.735201 -5.666702 -4.541200
			CHANNELS 3 Xrotation Yrotation Zrotation
			JOINT RightLeg
			{
				OFFSET 0.018946 -31.938133 0.493100
				CHANNELS 3 Xrotation Yrotation Zrotation
				JOINT RightFoot
				{
					OFFSET -0.018946 -31.938126 -4.336299
					CHANNELS 3 Xrotation Yrotation Zrotation
					JOINT RightToeBase
					{
						OFFSET -0.943001 -26.722004 15.023500
						CHANNELS 3 Xrotation Yrotation Zrotation
						End Site
						{
							OFFSET 0 0 0
						}
					}
				}
			}
		}
	}
	JOINT Hips_virtual
	{
		OFFSET 0.000000 0.000000 0.000000
		CHANNELS 3 Xrotation Yrotation Zrotation
		JOINT Hips
		{
			OFFSET -0.000000 -0.000000 -0.000000
			CHANNELS 3 Xrotation Yrotation Zrotation
			JOINT Spine
			{
				OFFSET 0.000000 10.199997 -0.299500
				CHANNELS 3 Xrotation Yrotation Zrotation
				JOINT Spine1
				{
					OFFSET 0.000000 11.900002 -1.516600
					CHANNELS 3 Xrotation Yrotation Zrotation
					JOINT Spine2
					{
						OFFSET 0.000000 13.600006 -2.842500
						CHANNELS 3 Xrotation Yrotation Zrotation
						JOINT Neck_virtual
						{
							OFFSET 0.000000 0.000000 0.000000
							CHANNELS 3 Xrotation Yrotation Zrotation
							JOINT Neck
							{
								OFFSET 0.000000 9.624100 -2.890100
								CHANNELS 3 Xrotation Yrotation Zrotation
								JOINT Head
								{
									OFFSET 0.000000 14.068802 -1.351900
									CHANNELS 3 Xrotation Yrotation Zrotation
									End Site
									{
										OFFSET 0 0 0
									}
								}
							}
						}
						JOINT LeftShoulder_virtual
						{
							OFFSET 0.000000 0.000000 0.000000
							CHANNELS 3 Xrotation Yrotation Zrotation
							JOINT LeftShoulder
							{
								OFFSET 15.263000 10.923401 -0.547700
								CHANNELS 3 Xrotation Yrotation Zrotation
								JOINT LeftArm
								{
									OFFSET 25.438599 -2.830597 -13.032500
									CHANNELS 3 Xrotation Yrotation Zrotation
									JOINT LeftForeArm
									{
										OFFSET 29.960503 0.000000 0.000000
										CHANNELS 3 Xrotation Yrotation Zrotation
										JOINT LeftHand
										{
											OFFSET 27.849251 0.000000 0.000000
											CHANNELS 3 Xrotation Yrotation Zrotation
											End Site
											{
												OFFSET 0 0 0
											}
										}
									}
								}
							}
						}
						JOINT RightShoulder_virtual
						{
							OFFSET 0.000000 0.000000 0.000000
							CHANNELS 3 Xrotation Yrotation Zrotation
							JOINT RightShoulder
							{
								OFFSET -15.263000 10.923401 -0.547700
								CHANNELS 3 Xrotation Yrotation Zrotation
								JOINT RightArm
								{
									OFFSET -25.438599 -2.830597 -13.032500
									CHANNELS 3 Xrotation Yrotation Zrotation
									JOINT RightForeArm
									{
										OFFSET -29.960503 0.000000 0.000000
										CHANNELS 3 Xrotation Yrotation Zrotation
										JOINT RightHand
										{
											OFFSET -27.849251 0.000000 0.000000
											CHANNELS 3 Xrotation Yrotation Zrotation
											End Site
											{
												OFFSET 0 0 0
											}
										}
									}
								}
							}
						}
					}
				}
			}
		}
	}
}
MOTION
Frames: 5
Frame Time: 0.03333333
-7.279947 113.632248 23.584040 0.000000 0.000000 0.000000 14.072422 -71.774770 26.540799 -82.214509 -22.097300 23.834111 65.924153 9.304897 -14.467433 21.924673 5.224121 4.522021 0.000000 0.000000 0.000000 14.147807 -70.431592 26.042470 -123.993506 -6.916251 -3.369813 109.049612 11.819626 29.816323 37.593713 -9.783081 59.859109 0.000000 0.000000 0.000000 13.664237 -69.808290 26.380948 -0.768221 -0.163894 -0.103266 27.952250 -1.092336 -15.859228 11.007888 -2.933516 -2.376172 0.000000 0.000000 0.000000 10.720813 -0.685299 -2.317546 -0.386782 5.997626 -0.726536 0.000000 0.000000 0.000000 11.184169 -0.130267 -3.308003 5.939381 -12.967898 -2.327263 -47.707536 19.406613 -7.109377 38.932604 -33.545508 35.265042 0.000000 0.000000 0.000000 7.954307 -0.258180 -1.983149 27.017156 17.069915 -21.743132 -69.228202 -11.228268 -3.973429 22.961491 45.441047 -10.823897 0.000000 0.000000 0.000000 
-7.180007 113.630905 23.554306 0.000000 0.000000 0.000000 13.911382 -71.525440 26.285438 -82.205076 -21.912123 23.891361 65.822355 9.195981 -14.521904 21.980886 5.220885 4.365552 0.000000 0.000000 0.000000 13.985540 -70.201586 25.807863 -124.140491 -6.943572 -3.359619 109.070505 11.857299 29.811054 37.423689 -9.924890 59.768342 0.000000 0.000000 0.000000 13.426582 -69.561256 26.079083 -0.769119 -0.169295 -0.105350 27.924236 -1.110619 -15.819044 11.007261 -2.937828 -2.429059 0.000000 0.000000 0.000000 10.720658 -0.678837 -2.383967 -0.428785 6.019569 -0.716351 0.000000 0.000000 0.000000 11.183204 -0.087918 -3.327372 5.982929 -12.995797 -1.673888 -48.816636 18.878933 -6.037226 39.283649 -34.157984 35.737244 0.000000 0.000000 0.000000 7.934087 -0.266385 -2.055053 27.030142 16.670356 -21.899564 -69.856538 -11.056158 -4.722634 23.399866 46.514001 -11.159161 0.000000 0.000000 0.000000 
-7.029076 113.637138 23.566784 0.000000 0.000000 0.000000 13.564010 -71.020491 25.726678 -82.254800 -21.809614 24.013372 65.758992 8.967302 -14.581685 21.974054 5.136124 4.124771 0.000000 0.000000 0.000000 13.639134 -69.728684 25.258846 -124.315672 -7.016101 -3.346408 109.129293 11.966030 29.817973 37.104306 -10.018872 59.822055 0.000000 0.000000 0.000000 13.121093 -69.119882 25.568453 -0.771041 -0.172821 -0.107007 27.904209 -1.231633 -15.677285 11.000536 -2.916521 -2.476578 0.000000 0.000000 0.000000 10.689819 -0.633660 -2.447682 -0.483635 6.098609 -0.707121 0.000000 0.000000 0.000000 11.194325 -0.027378 -3.364289 6.159931 -13.030935 -0.298729 -50.367195 17.741872 -4.744549 39.856647 -34.886967 36.289833 0.000000 0.000000 0.000000 7.947066 -0.246063 -2.128205 27.135853 15.971528 -22.762777 -71.020812 -11.119775 -5.168895 24.143389 48.095399 -11.904872 0.000000 0.000000 0.000000 
-6.863089 113.647827 23.605236 0.000000 0.000000 0.000000 13.163649 -70.378221 25.029008 -82.364568 -21.800077 24.194202 65.772454 8.639031 -14.650734 21.854184 5.001584 3.860101 0.000000 0.000000 0.000000 13.239338 -69.122737 24.561203 -124.534621 -7.130602 -3.349473 109.242203 12.109397 29.829219 36.779404 -10.063942 59.943489 0.000000 0.000000 0.000000 12.896416 -68.557908 25.017168 -0.772997 -0.176954 -0.106986 27.900899 -1.428961 -15.463743 11.002600 -2.841034 -2.524115 0.000000 0.000000 0.000000 10.658438 -0.540121 -2.513257 -0.548646 6.229218 -0.693500 0.000000 0.000000 0.000000 11.236077 0.055695 -3.426324 6.445903 -13.134759 1.553828 -51.861999 16.122209 -3.718470 40.422511 -35.454324 36.688931 0.000000 0.000000 0.000000 7.994660 -0.171730 -2.202254 27.310928 15.142622 -24.156118 -72.438097 -11.313747 -5.165445 24.975797 49.693936 -12.819452 0.000000 0.000000 0.000000 
-6.714978 113.660065 23.650957 0.000000 0.000000 0.000000 12.871474 -69.709840 24.389991 -82.536006 -21.864525 24.419711 65.879374 8.236902 -14.728046 21.591225 4.837435 3.610365 0.000000 0.000000 0.000000 12.895724 -68.482496 23.867936 -124.778622 -7.276459 -3.333121 109.402965 12.232788 29.878420 36.443157 -10.229762 60.017651 0.000000 0.000000 0.000000 12.833733 -67.992470 24.561196 -0.774062 -0.174961 -0.103943 27.902334 -1.659677 -15.245068 11.022032 -2.702365 -2.580416 0.000000 0.000000 0.000000 10.663804 -0.392767 -2.580481 -0.623322 6.402750 -0.672299 0.000000 0.000000 0.000000 11.319100 0.172810 -3.510532 6.809139 -13.363917 3.677801 -53.191027 14.147968 -3.264084 40.845979 -35.695013 36.832492 0.000000 0.000000 0.000000 8.094790 -0.029878 -2.282290 27.528191 14.358951 -25.818416 -73.915959 -11.360533 -4.899723 25.735979 51.014481 -13.678997 0.000000 0.000000 0.000000 
